<?xml version="1.0" encoding="UTF-8" standalone="no"?>
<!DOCTYPE svg PUBLIC "-//W3C//DTD SVG 1.1//EN" "http://www.w3.org/Graphics/SVG/1.1/DTD/svg11.dtd">
<svg version="1.1" xmlns="http://www.w3.org/2000/svg" xmlns:xlink="http://www.w3.org/1999/xlink" preserveAspectRatio="xMidYMid meet" viewBox="0 0 25 25" width="25" height="25"><defs><path d="M16.13 2.98C16.8 2.44 17.79 2.55 18.32 3.22C18.55 3.51 18.27 3.15 18.5 3.44C19.03 4.12 18.92 5.1 18.25 5.64C15.85 7.55 9.87 12.32 7.47 14.23C6.79 14.77 5.81 14.66 5.27 13.98C5.04 13.69 5.33 14.05 5.1 13.76C4.56 13.09 4.67 12.1 5.35 11.57C7.75 9.65 13.73 4.89 16.13 2.98Z" id="alOqKeutK"></path><path d="M19.4 17.77C20.16 18.16 20.46 19.11 20.06 19.87C19.89 20.2 20.1 19.79 19.93 20.12C19.54 20.89 18.59 21.18 17.83 20.79C15.1 19.37 8.32 15.84 5.6 14.42C4.84 14.02 4.54 13.08 4.94 12.31C5.11 11.99 4.9 12.39 5.07 12.07C5.46 11.3 6.41 11 7.17 11.4C9.9 12.82 16.68 16.35 19.4 17.77Z" id="awqSayOpP"></path></defs><g><g><g><use xlink:href="#alOqKeutK" opacity="1" fill="#636363" fill-opacity="1"></use></g><g><use xlink:href="#awqSayOpP" opacity="1" fill="#636363" fill-opacity="1"></use></g></g></g></svg>