<svg xmlns="http://www.w3.org/2000/svg" width="20" height="20" viewBox="0 0 20 20">
    <path fill="#ff3a00" fill-rule="evenodd" d="M17.046 2.355h-2.78V.62c0-.35-.294-.62-.658-.62-.035 0-.059.011-.07.023A.09.09 0 0 0 13.49 0H6.86c-.363 0-.645.27-.645.62v1.735H3.424c-.798 0-1.42.597-1.42 1.363V5.95h1.232v12.698c0 .766.61 1.352 1.408 1.352h11.182c.798 0 1.42-.586 1.42-1.352V5.949h1.22V3.718c0-.766-.622-1.363-1.42-1.363zm-9.54-1.116h5.457v1.116H7.507V1.239zm8.437 17.409c0 .079-.035.113-.117.113H4.644c-.082 0-.117-.034-.117-.113V5.949h11.416v12.699zm1.22-13.938H3.306v-.992c0-.078.036-.124.118-.124h13.622c.082 0 .117.046.117.124v.992zM12.6 7.403h1.302v10.253H12.6V7.403zm-3.004 0h1.303v10.253H9.595V7.403zm-3.003 0h1.302v10.253H6.592V7.403z"/>
</svg>
