<?xml version="1.0" encoding="UTF-8" standalone="no"?>
<!DOCTYPE svg PUBLIC "-//W3C//DTD SVG 1.1//EN" "http://www.w3.org/Graphics/SVG/1.1/DTD/svg11.dtd">
<svg version="1.1" xmlns="http://www.w3.org/2000/svg" xmlns:xlink="http://www.w3.org/1999/xlink" preserveAspectRatio="xMidYMid meet" viewBox="0 0 25 25" width="25" height="25"><defs><path d="M16.53 4.86C16.53 3.81 16.53 3.24 16.53 3.12C16.53 2.77 16.24 2.5 15.87 2.5C15.84 2.5 15.81 2.51 15.8 2.52C15.79 2.51 15.77 2.5 15.76 2.5C15.09 2.5 9.79 2.5 9.13 2.5C8.76 2.5 8.48 2.77 8.48 3.12C8.48 3.24 8.48 3.81 8.48 4.86C6.81 4.86 5.88 4.86 5.69 4.86C4.89 4.86 4.27 5.45 4.27 6.22C4.27 6.37 4.27 7.11 4.27 8.45L5.5 8.45C5.5 16.07 5.5 20.3 5.5 21.15C5.5 21.91 6.11 22.5 6.91 22.5C8.03 22.5 16.97 22.5 18.09 22.5C18.89 22.5 19.51 21.91 19.51 21.15C19.51 20.3 19.51 16.07 19.51 8.45L20.73 8.45C20.73 7.11 20.73 6.37 20.73 6.22C20.73 5.45 20.11 4.86 19.31 4.86C18.94 4.86 18.01 4.86 16.53 4.86ZM15.23 3.74L15.23 4.86L9.77 4.86L9.77 3.74L15.23 3.74ZM18.09 21.26C16.97 21.26 8.03 21.26 6.91 21.26C6.83 21.26 6.79 21.23 6.79 21.15C6.79 20.3 6.79 16.07 6.79 8.45L18.21 8.45L18.21 21.15C18.18 21.22 18.15 21.26 18.09 21.26ZM5.57 7.21C5.57 6.61 5.57 6.28 5.57 6.22C5.57 6.14 5.61 6.09 5.69 6.09C7.05 6.09 17.95 6.09 19.31 6.09C19.39 6.09 19.43 6.14 19.43 6.22C19.43 6.28 19.43 6.61 19.43 7.21L5.57 7.21ZM16.17 9.9L16.17 20.16L14.86 20.16L14.86 9.9L16.17 9.9ZM13.16 9.9L13.16 20.16L11.86 20.16L11.86 9.9L13.16 9.9ZM10.16 9.9L10.16 20.16L8.86 20.16L8.86 9.9L10.16 9.9Z" id="e2hpL7zVla"></path></defs><g><g><g><use xlink:href="#e2hpL7zVla" opacity="1" fill="#636363" fill-opacity="1"></use><g><use xlink:href="#e2hpL7zVla" opacity="1" fill-opacity="0" stroke="#000000" stroke-width="1" stroke-opacity="0"></use></g></g></g></g></svg>